PathFileType	4	(X/Y/Z)	/Users/itak/Documents/Research/Walk-IL/dataset/trc/00533_00183.trc
DataRate	CameraRate	NumFrames	NumMarkers	Units	OrigDataRate	OrigDataStartFrame	OrigNumFrames
100.000000	100.000000	4	53	mm	100.000000	195	522
Frame#	Time	RPSI			LPSI			L3			STRN			T10			C7			CLAV			RBAK			LBAK			LSHO			LUPA			LAEL			LAOL			LWTS			LWPS			LFRA			LIFD			LHPS			LHTS			RSHO			RUPA			RAEL			RAOL			RWTS			RWPS			RFRA			RIFD			RHTS			RHPS			RBHD			LFHD			RFHD			LBHD			LHIP			RHIP			RASI			LASI			LKNE			LTHI			LANK			LTIP			LTOE			LMT1			LMT5			LHEE			RKNE			RTHI			RANK			RTIP			RTOE			RMT1			RMT5			RHEE			
		X1	Y1	Z1	X2	Y2	Z2	X3	Y3	Z3	X4	Y4	Z4	X5	Y5	Z5	X6	Y6	Z6	X7	Y7	Z7	X8	Y8	Z8	X9	Y9	Z9	X10	Y10	Z10	X11	Y11	Z11	X12	Y12	Z12	X13	Y13	Z13	X14	Y14	Z14	X15	Y15	Z15	X16	Y16	Z16	X17	Y17	Z17	X18	Y18	Z18	X19	Y19	Z19	X20	Y20	Z20	X21	Y21	Z21	X22	Y22	Z22	X23	Y23	Z23	X24	Y24	Z24	X25	Y25	Z25	X26	Y26	Z26	X27	Y27	Z27	X28	Y28	Z28	X29	Y29	Z29	X30	Y30	Z30	X31	Y31	Z31	X32	Y32	Z32	X33	Y33	Z33	X34	Y34	Z34	X35	Y35	Z35	X36	Y36	Z36	X37	Y37	Z37	X38	Y38	Z38	X39	Y39	Z39	X40	Y40	Z40	X41	Y41	Z41	X42	Y42	Z42	X43	Y43	Z43	X44	Y44	Z44	X45	Y45	Z45	X46	Y46	Z46	X47	Y47	Z47	X48	Y48	Z48	X49	Y49	Z49	X50	Y50	Z50	X51	Y51	Z51	X52	Y52	Z52	X53	Y53	Z53	

196	1.95	-879.155029296875	961.1454467773438	-263.3880310058594	-816.7479248046875	947.6548461914062	-369.5005187988281	-843.6008911132812	1032.667602539062	-315.5230102539062	-641.2747802734375	1185.1689453125	-210.3143920898438	-852.1934814453125	1138.723999023438	-308.2799987792969	-810.007080078125	1366.485229492188	-272.3402099609375	-670.8198852539062	1281.840454101562	-217.7461700439453	-892.4140014648438	1242.708251953125	-223.0778198242188	-799.5648803710938	1318.5634765625	-365.9070129394531	-683.1349487304688	1366.486450195312	-392.218505859375	-676.7999267578125	1243.240844726562	-460.7714538574219	-666.1460571289062	1035.04052734375	-495.9240112304688	-758.0397338867188	1026.037475585938	-458.5973205566406	-595.03662109375	849.705078125	-447.2850036621094	-656.5836791992188	816.4624633789062	-510.216064453125	-651.4149780273438	952.3943481445312	-498.0850524902344	-587.8195190429688	691.6395874023438	-451.0027160644531	-633.2706298828125	762.2687377929688	-501.1076354980469	-578.04248046875	774.03271484375	-468.2128295898438	-821.4984130859375	1350.064453125	-115.7607040405273	-865.890380859375	1282.013916015625	-78.16641235351562	-911.3443603515625	1017.138671875	-56.59213256835938	-931.9999389648438	1005.769897460938	-118.7920379638672	-836.7990112304688	809.1994018554688	-22.29170608520508	-923.1366577148438	793.4053955078125	-45.54074859619141	-917.483154296875	962.7974853515625	-50.86871337890625	-847.869384765625	649.998291015625	-22.51280975341797	-850.9105224609375	716.3118286132812	3.681125402450562	-912.8527221679688	718.572509765625	-30.37150192260742	-801.2872924804688	1516.354125976562	-168.2155151367188	-633.8324584960938	1580.598754882812	-258.9877624511719	-679.8750610351562	1575.488891601562	-140.1042175292969	-757.4502563476562	1517.494506835938	-321.6531066894531	-657.4986572265625	869.2639770507812	-421.4382019042969	-848.9557495117188	871.7854614257812	-96.64134216308594	-730.3013305664062	917.7056884765625	-106.4363479614258	-615.1154174804688	913.790283203125	-317.6689147949219	-587.0203857421875	453.9695434570312	-330.6416320800781	-600.5044555664062	612.0794067382812	-360.8240966796875	-884.1748657226562	210.0635833740234	-513.221923828125	-670.8662719726562	353.7832946777344	-390.1244506835938	-826.5946655273438	47.3303108215332	-414.9304504394531	-880.2449340820312	104.5538330078125	-405.330810546875	-833.7977294921875	116.3115463256836	-499.8348388671875	-937.0569458007812	243.6216125488281	-471.5802612304688	-775.6128540039062	482.0828247070312	-116.4640884399414	-816.529541015625	741.6083984375	-78.92701721191406	-805.53662109375	48.22309494018555	-187.4186706542969	-753.6355590820312	335.7075805664062	-131.9335784912109	-611.6471557617188	48.43769836425781	-122.3348541259766	-647.4857177734375	51.71597290039062	-189.7052001953125	-714.9369506835938	44.98221588134766	-119.646728515625	-825.7810668945312	38.16576766967773	-254.9057769775391	
197	1.96	-874.3723754882812	961.4058227539062	-259.6204833984375	-811.8773193359375	948.078125	-365.6251220703125	-838.8009033203125	1033.222290039062	-311.2371215820312	-636.1165161132812	1185.72216796875	-206.3910369873047	-847.3925170898438	1139.457763671875	-303.762939453125	-804.7432250976562	1367.104248046875	-267.6308898925781	-665.7088623046875	1282.322143554688	-213.6698913574219	-887.029541015625	1243.324096679688	-218.0914764404297	-794.6300659179688	1319.254028320312	-361.2973022460938	-678.2514038085938	1367.087036132812	-387.9913940429688	-671.9400024414062	1243.72802734375	-456.3306274414062	-660.9825439453125	1035.328857421875	-490.6834411621094	-753.0394287109375	1026.452880859375	-453.6808166503906	-589.6583862304688	850.4342041015625	-440.9754943847656	-650.9761962890625	816.7340087890625	-503.9421691894531	-646.1366577148438	952.7567138671875	-492.4110412597656	-581.83935546875	692.4804077148438	-443.9369812011719	-627.4041137695312	762.6304931640625	-494.5170288085938	-572.3134155273438	774.6995849609375	-461.5206909179688	-815.5530395507812	1350.753540039062	-111.0725021362305	-859.3565673828125	1282.607299804688	-72.75015258789062	-900.9720458984375	1017.171691894531	-47.79390335083008	-922.9403076171875	1005.050659179688	-109.3616790771484	-824.3529663085938	810.3838500976562	-12.9111795425415	-910.9468994140625	793.81982421875	-34.79572677612305	-906.3424072265625	962.8230590820312	-41.55584716796875	-834.70654296875	651.1104125976562	-10.83270168304443	-837.6942138671875	717.7950439453125	14.50098705291748	-900.1535034179688	719.3171997070312	-18.71141815185547	-795.3812255859375	1516.515747070312	-163.1717681884766	-628.921630859375	1581.442504882812	-255.2048187255859	-674.0270385742188	1576.197387695312	-135.9810485839844	-752.6365966796875	1517.789916992188	-316.9461059570312	-651.8504028320312	870.399658203125	-417.1337890625	-844.4174194335938	871.77294921875	-92.98996734619141	-725.6439208984375	917.9891967773438	-102.3350219726562	-610.2026977539062	915.1131591796875	-313.3927612304688	-572.841552734375	457.6607971191406	-320.6702575683594	-590.3510131835938	614.7053833007812	-353.8232727050781	-867.2799682617188	209.8543243408203	-501.7950439453125	-655.6729736328125	356.7049560546875	-379.42431640625	-805.6567993164062	48.63055419921875	-403.09423828125	-860.7063598632812	104.6996459960938	-393.5983581542969	-814.4608154296875	117.5724563598633	-488.0229187011719	-920.9735107421875	242.2386474609375	-460.2767639160156	-773.9122924804688	481.6786499023438	-114.5326461791992	-812.3621215820312	741.4722900390625	-75.64234924316406	-805.599853515625	48.19055557250977	-187.4085235595703	-752.9241333007812	335.3364868164062	-130.8980560302734	-611.7794189453125	48.62831878662109	-122.2464599609375	-647.617431640625	51.84559631347656	-189.6244201660156	-715.0119018554688	44.95426559448242	-119.5753402709961	-825.8021850585938	38.14251327514648	-254.9707489013672	
198	1.97	-869.4453125	961.669677734375	-255.8337097167969	-806.8557739257812	948.662109375	-361.7588500976562	-833.9195556640625	1033.799560546875	-306.9796142578125	-631.0233154296875	1186.315063476562	-202.3800811767578	-842.5367431640625	1140.179809570312	-299.3103332519531	-799.5060424804688	1367.728881835938	-263.0161743164062	-660.6350708007812	1282.850952148438	-209.5550842285156	-881.7174682617188	1243.970092773438	-213.2777252197266	-789.6447143554688	1319.952880859375	-356.7674865722656	-673.3006591796875	1367.685791015625	-383.7536315917969	-666.9617309570312	1244.24462890625	-451.9117736816406	-655.7151489257812	1035.65234375	-485.4820861816406	-747.9740600585938	1026.935913085938	-448.8797912597656	-584.3089599609375	851.14501953125	-434.6236572265625	-645.2766723632812	817.0264282226562	-497.6975402832031	-640.7799072265625	953.1474609375	-486.7536315917969	-576.0385131835938	693.276611328125	-436.8049926757812	-621.5438232421875	763.0123291015625	-487.9319763183594	-566.6550903320312	775.3306884765625	-454.7411193847656	-809.7359619140625	1351.507202148438	-106.4848937988281	-852.9524536132812	1283.27880859375	-67.46882629394531	-890.5498046875	1017.326477050781	-39.21932983398438	-913.686279296875	1004.4296875	-100.1782913208008	-811.7788696289062	811.7477416992188	-3.582022666931152	-898.5476684570312	794.3609008789062	-24.27530288696289	-895.10986328125	962.9910888671875	-32.46793746948242	-821.2587890625	652.427001953125	0.7277796864509583	-824.3143920898438	719.45458984375	25.20927810668945	-887.1952514648438	720.2047729492188	-7.280166149139404	-789.4672241210938	1516.768432617188	-158.2190856933594	-623.90771484375	1582.207641601562	-251.3904876708984	-668.119140625	1576.81396484375	-131.8664093017578	-747.759765625	1518.20703125	-312.2973327636719	-645.996337890625	871.7243041992188	-412.8230895996094	-839.8681030273438	871.7000122070312	-89.35284423828125	-720.9857788085938	918.1700439453125	-98.19001007080078	-605.2620239257812	916.4262084960938	-309.0362243652344	-559.040771484375	461.6283874511719	-310.8904113769531	-580.2425537109375	617.5420532226562	-346.9595031738281	-849.9698486328125	208.35546875	-489.9772338867188	-640.6290893554688	359.4419860839844	-368.7376708984375	-783.8040161132812	49.5947151184082	-390.005126953125	-840.4804077148438	104.2156600952148	-380.9601135253906	-794.4293212890625	117.8724136352539	-475.3129272460938	-904.5538940429688	239.5740356445312	-448.7422790527344	-772.3009643554688	481.2668762207031	-112.6366806030273	-808.2293701171875	741.2749633789062	-72.41307830810547	-805.6571044921875	48.15460586547852	-187.4048309326172	-752.2964477539062	334.9755554199219	-129.8880157470703	-611.9046020507812	48.81336212158203	-122.1517105102539	-647.7561645507812	51.98266220092773	-189.5395202636719	-715.09716796875	44.92293548583984	-119.4844818115234	-825.8218383789062	38.12755966186523	-255.0366516113281	
199	1.98	-864.3826293945312	961.9292602539062	-252.0432739257812	-801.69140625	949.32763671875	-357.9253234863281	-828.9404296875	1034.365478515625	-302.749755859375	-625.971435546875	1186.92333984375	-198.2729644775391	-837.5979614257812	1140.857177734375	-294.9096374511719	-794.2883911132812	1368.330444335938	-258.4806823730469	-655.574462890625	1283.406372070312	-205.3866882324219	-876.4468994140625	1244.599243164062	-208.587890625	-784.6053466796875	1320.62890625	-352.3056640625	-668.2838134765625	1368.257202148438	-379.4985656738281	-661.87451171875	1244.76513671875	-447.5035400390625	-650.3468627929688	1035.975341796875	-480.3208312988281	-742.8422241210938	1027.454956054688	-444.1845703125	-578.9855346679688	851.8224487304688	-428.2361755371094	-639.493408203125	817.3173217773438	-491.4987182617188	-635.3482055664062	953.5423583984375	-481.1152648925781	-570.4144287109375	694.0018920898438	-429.6278076171875	-615.6831665039062	763.4024658203125	-481.366943359375	-561.070068359375	775.921875	-447.8715515136719	-804.0442504882812	1352.291015625	-101.9749984741211	-846.6715087890625	1283.989379882812	-62.30647277832031	-880.15625	1017.589660644531	-30.8914737701416	-904.2852172851562	1003.887817382812	-91.28168487548828	-799.0928955078125	813.290771484375	5.684412956237793	-885.9503173828125	794.9993286132812	-13.99056339263916	-883.8756103515625	963.28271484375	-23.62123107910156	-807.4925537109375	653.9505004882812	12.14943027496338	-810.7539672851562	721.283447265625	35.78958892822266	-873.9671020507812	721.2069702148438	3.906720399856567	-783.55517578125	1517.108520507812	-153.361572265625	-618.7822265625	1582.877807617188	-247.5565338134766	-662.1561279296875	1577.34033203125	-127.7679443359375	-742.8317260742188	1518.710083007812	-307.7069091796875	-639.948486328125	873.1688232421875	-408.503173828125	-835.313720703125	871.5684204101562	-85.73890686035156	-716.314453125	918.2437133789062	-93.99616241455078	-600.2880859375	917.6865234375	-304.5990295410156	-545.6296997070312	465.7892761230469	-301.3381958007812	-570.2066650390625	620.5414428710938	-340.24609375	-832.2653198242188	205.6103515625	-477.7763366699219	-625.743896484375	361.9526977539062	-358.0798950195312	-761.1297607421875	50.25768661499023	-375.7309265136719	-819.6224975585938	103.1719741821289	-367.4497375488281	-773.7786254882812	117.2758178710938	-461.7530212402344	-887.79345703125	235.6792144775391	-436.9618225097656	-770.7952880859375	480.849365234375	-110.7685394287109	-804.1561889648438	741.0216064453125	-69.23250579833984	-805.7095336914062	48.11522674560547	-187.4069213867188	-751.7503662109375	334.62646484375	-128.8927612304688	-612.0238647460938	48.99052810668945	-122.0501937866211	-647.9007568359375	52.12436676025391	-189.4512176513672	-715.1915893554688	44.88642883300781	-119.3751602172852	-825.8426513671875	38.12097930908203	-255.1017303466797	
